/* XPM */
static char * tklor_xpm[] = {
"32 32 220 2",
"  	c None",
". 	c #1E1D1F",
"+ 	c #060507",
"@ 	c #050406",
"# 	c #1C1B1D",
"$ 	c #201F21",
"% 	c #252424",
"& 	c #2F2E2E",
"* 	c #040305",
"= 	c #0A090A",
"- 	c #0F0E10",
"; 	c #201F20",
"> 	c #1E1E1F",
", 	c #0B0A0B",
"' 	c #030204",
") 	c #191819",
"! 	c #727272",
"~ 	c #323232",
"{ 	c #232222",
"] 	c #2B2B2B",
"^ 	c #59595A",
"/ 	c #757574",
"( 	c #79735E",
"_ 	c #897A46",
": 	c #A4A4A4",
"< 	c #A5A5A4",
"[ 	c #AE913C",
"} 	c #E2B114",
"| 	c #E3B214",
"1 	c #B79015",
"2 	c #AA9960",
"3 	c #181616",
"4 	c #DBB030",
"5 	c #F2C014",
"6 	c #EBB814",
"7 	c #F3C214",
"8 	c #F5C314",
"9 	c #EBBA14",
"0 	c #95710E",
"a 	c #080709",
"b 	c #DEAF39",
"c 	c #B48624",
"d 	c #DAA115",
"e 	c #E1AB15",
"f 	c #DDA214",
"g 	c #CA9E31",
"h 	c #6C6251",
"i 	c #211F21",
"j 	c #7B7A7B",
"k 	c #D9C489",
"l 	c #E7B323",
"m 	c #E8CC93",
"n 	c #F2F3EF",
"o 	c #BFC0BF",
"p 	c #3E3D3E",
"q 	c #B3B4B3",
"r 	c #FBFDFB",
"s 	c #F9F8F2",
"t 	c #E3E5E3",
"u 	c #121012",
"v 	c #343334",
"w 	c #575657",
"x 	c #FAFDFB",
"y 	c #FAFDFA",
"z 	c #F9FBF8",
"A 	c #CDCECC",
"B 	c #3B3A3B",
"C 	c #807F80",
"D 	c #FBFEFC",
"E 	c #F8FAF7",
"F 	c #D8DAD8",
"G 	c #121112",
"H 	c #1E1C1E",
"I 	c #3F3F3F",
"J 	c #F0F2F1",
"K 	c #F1F3F1",
"L 	c #595959",
"M 	c #131214",
"N 	c #717171",
"O 	c #F7F9F7",
"P 	c #F5F7F4",
"Q 	c #F9FBF9",
"R 	c #F2F4F2",
"S 	c #565656",
"T 	c #454444",
"U 	c #232223",
"V 	c #686868",
"W 	c #D2D4D2",
"X 	c #7C7C7C",
"Y 	c #585858",
"Z 	c #121213",
"` 	c #757575",
" .	c #F8FBF9",
"..	c #F8FAF8",
"+.	c #BCBDBC",
"@.	c #626262",
"#.	c #171617",
"$.	c #141315",
"%.	c #473D3E",
"&.	c #A28A8A",
"*.	c #EDB9B8",
"=.	c #FAFAF8",
"-.	c #ECEEEC",
";.	c #686768",
">.	c #764445",
",.	c #A30E10",
"'.	c #C30204",
").	c #C97070",
"!.	c #FBFDFA",
"~.	c #6D6D6D",
"{.	c #585758",
"].	c #060506",
"^.	c #893638",
"/.	c #C50204",
"(.	c #E70204",
"_.	c #B60608",
":.	c #EFE4E3",
"<.	c #F9F9F6",
"[.	c #E7CBC9",
"}.	c #D1ACAA",
"|.	c #9E3E3E",
"1.	c #6E3839",
"2.	c #0C0B0D",
"3.	c #0A090B",
"4.	c #9F1719",
"5.	c #C80204",
"6.	c #DD0204",
"7.	c #BA1D1E",
"8.	c #F9FAF8",
"9.	c #BB6060",
"0.	c #A60204",
"a.	c #8A0204",
"b.	c #AD8D8D",
"c.	c #A85D5D",
"d.	c #170305",
"e.	c #282728",
"f.	c #9F090B",
"g.	c #B80204",
"h.	c #BB6868",
"i.	c #FBFEFB",
"j.	c #C9A4A3",
"k.	c #720305",
"l.	c #BA0204",
"m.	c #AA0204",
"n.	c #9E2B2D",
"o.	c #B2A4A4",
"p.	c #470E10",
"q.	c #252425",
"r.	c #998E8D",
"s.	c #C4A2A3",
"t.	c #EAE2E0",
"u.	c #F6F8F5",
"v.	c #CFAAAA",
"w.	c #A90204",
"x.	c #E00204",
"y.	c #D00204",
"z.	c #950204",
"A.	c #5E2426",
"B.	c #0C0204",
"C.	c #F0F3F1",
"D.	c #F7F8F5",
"E.	c #B34142",
"F.	c #C00204",
"G.	c #DA0305",
"H.	c #B65354",
"I.	c #393838",
"J.	c #B0B1B0",
"K.	c #F3EEEC",
"L.	c #B66969",
"M.	c #C09091",
"N.	c #7B7A7A",
"O.	c #1D1D1E",
"P.	c #858686",
"Q.	c #F0F2F0",
"R.	c #EFF1EF",
"S.	c #F6F8F6",
"T.	c #EAECEA",
"U.	c #C0C1C0",
"V.	c #7F7F7F",
"W.	c #111011",
"X.	c #2B2A2B",
"Y.	c #0B0A0C",
"Z.	c #19181A",
"`.	c #151415",
" +	c #100F10",
".+	c #0E0D0E",
"++	c #212022",
"@+	c #080607",
"#+	c #060405",
"$+	c #1D1C1E",
"%+	c #222123",
"&+	c #BC9034",
"*+	c #B98C2A",
"=+	c #86681F",
"-+	c #7F6432",
";+	c #DCA52F",
">+	c #DFA62E",
",+	c #DAA935",
"'+	c #CE992A",
")+	c #CD991B",
"!+	c #DAA420",
"~+	c #E0AC26",
"{+	c #E6AD14",
"]+	c #E5A717",
"^+	c #DBA021",
"/+	c #DAA437",
"(+	c #E0A816",
"_+	c #E0A815",
":+	c #E2AD1F",
"<+	c #DDAA29",
"[+	c #DCA624",
"}+	c #DEA615",
"|+	c #E0A915",
"1+	c #D3A733",
"2+	c #ECB932",
"3+	c #E7AA25",
"4+	c #E6A823",
"5+	c #E8AF21",
"6+	c #E6AA27",
"7+	c #DCA82B",
"                            . + @ #                             ",
"                          $ % & * @ =                           ",
"                          - ; > , * ' )                         ",
"                          ! ~ { ] ^ * @                         ",
"                          / ( _ : < ; '                         ",
"                          [ } | 1 2 3 '                         ",
"                        4 5 6 7 8 9 0 a                         ",
"                        b c d e f g h i                         ",
"                          j k l m n o p                         ",
"                          q r s r r t u                         ",
"                      v w x y z y r A B C                       ",
"                      B o D E r r r F > G H                     ",
"                      I J D E r r y K L M '                     ",
"                      N O r P Q r r R S T ' U                   ",
"                    V W D D r y y r r X Y * Z                   ",
"                    `  .D ..r r r r r +.@.#.$.                  ",
"                  %.&.*.=...r r r y r -.S ;.G                   ",
"                  >.,.'.).Q r y y r r !.~.{.].                  ",
"                  ^./.(._.:.r r <.[.}.|.1.2.3.                  ",
"                  4.5.6.7.8.r y 9.0.a.b.c.d.e.                  ",
"                    f.g.h...i.j.k.l.m.n.o.p.q.                  ",
"                    r.s.t.u.r v.w.x.y.z.A.B.B                   ",
"                      C.D D.r z E.F.G.H.I.'                     ",
"                      J.D D r r K.L.M.N.a O.                    ",
"                        P.Q.R.S.T.U.V.W.*                       ",
"                        X.- Y.Z.`. +.+' ++                      ",
"                          @+#+$+O.%+' @                         ",
"                          &+*+      =+-+                        ",
"                          ;+>+      ,+'+                        ",
"                    )+!+~+{+]+      ^+/+                        ",
"                    (+_+:+<+      [+}+|+1+                      ",
"                                2+3+4+5+6+7+                    "};
